<?xml version="1.0"?>
<svg xmlns="http://www.w3.org/2000/svg" xmlns:xlink="http://www.w3.org/1999/xlink" version="1.1" id="Layer_1" x="0px" y="0px" viewBox="0 0 496 496" style="enable-background:new 0 0 496 496;" xml:space="preserve" width="512px" height="512px" class=""><g><path style="fill:#FFDD09" d="M280,488H40c-17.672,0-32-14.328-32-32V40C8,22.328,22.328,8,40,8h240c17.672,0,32,14.328,32,32v416  C312,473.672,297.672,488,280,488z" data-original="#A8A8A8" class="" data-old_color="#ffdd09"/><path style="fill:#FD9808" d="M280,8h-16v480h16c17.672,0,32-14.328,32-32V40C312,22.328,297.672,8,280,8z" data-original="#9B9B9B" class="" data-old_color="#fd9808"/><rect x="8" y="56" style="fill:#1CD759" width="304" height="368" data-original="#EFE7E4" class="active-path" data-old_color="#1cd759"/><rect x="264" y="56" style="fill:#FD9808" width="48" height="368" data-original="#D8D1D0" class="" data-old_color="#fd9808"/><g>
	<path style="fill:#020202" d="M280,496H40c-22.056,0-40-17.944-40-40V40C0,17.944,17.944,0,40,0h240c22.056,0,40,17.944,40,40v416   C320,478.056,302.056,496,280,496z M40,16c-13.232,0-24,10.768-24,24v416c0,13.232,10.768,24,24,24h240c13.232,0,24-10.768,24-24   V40c0-13.232-10.768-24-24-24H40z" data-original="#684621" class="" data-old_color="#030303"/>
	<rect x="8" y="48" style="fill:#020202" width="304" height="16" data-original="#684621" class="" data-old_color="#030303"/>
</g><path style="fill:#FFDD09" d="M336,288c-15.576,0-30.736-5.056-43.2-14.4L184,192v200h304V192l-108.8,81.6  C366.736,282.944,351.576,288,336,288z" data-original="#66ADDD" class="" data-old_color="#66ADDD"/><path style="fill:#1CD759" d="M379.2,102.4C366.736,93.056,351.576,88,336,88s-30.736,5.056-43.2,14.4L184,184v8l108.8,81.6  c12.464,9.344,27.624,14.4,43.2,14.4s30.736-5.056,43.2-14.4L488,192v-8L379.2,102.4z" data-original="#FF6E6E" class="" data-old_color="#1cd759"/><path style="fill:#1CD759" d="M379.2,102.4C366.736,93.056,351.576,88,336,88s-30.736,5.056-43.2,14.4l-11.184,8.384  C291.088,106.376,301.432,104,312,104c15.576,0,30.736,5.056,43.2,14.4l116.64,85.72L488,192v-8L379.2,102.4z" data-original="#E56565" class="" data-old_color="#1cd759"/><rect x="120" y="448" style="fill:#020202" width="80" height="16" data-original="#684621" class="" data-old_color="#030303"/><rect x="32" y="256" style="fill:#FFDD09" width="152" height="72" data-original="#A8A8A8" class="" data-old_color="#ffdd09"/><rect x="8" y="416" style="fill:#020202" width="304" height="16" data-original="#684621" class="" data-old_color="#030303"/><polygon style="fill:#FD9808" points="456,392 488,392 488,192 456,216 " data-original="#5B9DC1" class="" data-old_color="#5B9DC1"/><g>
	<path style="fill:#020202" d="M496,400H176V180l112-84c13.76-10.32,30.808-16,48-16s34.24,5.68,48,16l112,84V400z M192,384h288   V188l-105.6-79.2C363.392,100.544,349.752,96,336,96s-27.392,4.544-38.4,12.8L192,188V384z" data-original="#684621" class="" data-old_color="#030303"/>
	<path style="fill:#020202" d="M336,296c-17.192,0-34.24-5.68-48-16l-108.8-81.6l9.6-12.8l108.8,81.6   c11,8.248,24.648,12.8,38.4,12.8s27.392-4.544,38.4-12.8l108.8-81.6l9.6,12.8L384,280C370.24,290.32,353.192,296,336,296z" data-original="#684621" class="" data-old_color="#030303"/>
	
		<rect x="160.797" y="328.004" transform="matrix(-0.7071 0.7071 -0.7071 -0.7071 647.2836 403.8952)" style="fill:#020202" width="158.39" height="16" data-original="#684621" class="" data-old_color="#030303"/>
	
		<rect x="395.99" y="268.4" transform="matrix(-0.7071 0.7071 -0.7071 -0.7071 907.4397 240.1173)" style="fill:#020202" width="16" height="79.191" data-original="#684621" class="" data-old_color="#030303"/>
	
		<rect x="460.003" y="343.7" transform="matrix(-0.7071 0.7071 -0.7071 -0.7071 1061.9611 304.0814)" style="fill:#020202" width="16" height="56.559" data-original="#684621" class="" data-old_color="#030303"/>
	<path style="fill:#020202" d="M336,224c-17.648,0-32-14.352-32-32s14.352-32,32-32s32,14.352,32,32S353.648,224,336,224z M336,176   c-8.824,0-16,7.176-16,16s7.176,16,16,16s16-7.176,16-16S344.824,176,336,176z" data-original="#684621" class="" data-old_color="#030303"/>
	<path style="fill:#020202" d="M335.96,264c-2.984,0-5.984-0.176-9-0.552c-32.64-4-58.928-30.64-62.512-63.336   c-2.512-22.912,5.64-45.032,22.36-60.688c16.728-15.656,39.448-22.32,62.296-18.256c27.504,4.864,50.336,26.416,56.84,53.608   c1.872,7.832,2.464,15.76,1.776,23.56C406.424,212.968,394.456,224,379.872,224C364.504,224,352,211.496,352,196.128V192h16v4.128   c0,6.544,5.328,11.872,11.872,11.872c6.224,0,11.344-4.76,11.904-11.072c0.536-6.096,0.072-12.296-1.4-18.44   c-5.04-21.096-22.752-37.8-44.064-41.576c-17.848-3.16-35.552,2.016-48.576,14.184c-13.008,12.176-19.352,29.408-17.392,47.256   c2.784,25.408,23.2,46.104,48.552,49.208c19.552,2.352,38.52-5.304,50.776-20.576L392.152,237   C378.304,254.272,357.768,264,335.96,264z" data-original="#684621" class="" data-old_color="#030303"/>
	<rect x="32" y="248" style="fill:#020202" width="152" height="16" data-original="#684621" class="" data-old_color="#030303"/>
	<rect x="32" y="320" style="fill:#020202" width="152" height="16" data-original="#684621" class="" data-old_color="#030303"/>
</g><g>
	<rect x="256" y="352" style="fill:#1CD759" width="16" height="16" data-original="#EFE7E4" class="active-path" data-old_color="#1cd759"/>
	<rect x="288" y="352" style="fill:#1CD759" width="112" height="16" data-original="#EFE7E4" class="active-path" data-old_color="#1cd759"/>
</g></g> </svg>
