<?xml version="1.0"?>
<svg xmlns="http://www.w3.org/2000/svg" xmlns:xlink="http://www.w3.org/1999/xlink" version="1.1" id="Capa_1" x="0px" y="0px" width="512px" height="512px" viewBox="0 0 78.625 78.625" style="enable-background:new 0 0 78.625 78.625;" xml:space="preserve" class=""><g><g>
	<g>
		<path d="M56.786,0H21.841c-2.911,0-5.376,2.464-5.376,5.376V73.25c0,2.912,2.465,5.375,5.376,5.375h34.944    c2.91,0,5.375-2.463,5.375-5.375V5.376C62.161,2.464,59.697,0,56.786,0z M33.712,3.809h11.2c0.447,0,0.672,0.224,0.672,0.672    c0,0.448-0.225,0.672-0.672,0.672h-11.2c-0.447,0-0.672-0.224-0.672-0.672C33.042,4.033,33.265,3.809,33.712,3.809z     M39.313,75.712c-1.567,0-2.688-1.119-2.688-2.688c0-1.568,1.12-2.465,2.688-2.465c1.567,0,2.688,1.121,2.688,2.688    C42.001,74.593,40.88,75.712,39.313,75.712z M58.354,68.544H20.273V8.288h38.081V68.544z" data-original="#000000" class="active-path" data-old_color="#00c3ff" fill="#00c3ff"/>
		<g>
			<path d="M36.625,32.257l0.672-0.672l-5.823-5.823c-0.225-0.226-0.448-0.226-0.673,0c-0.224,0.224-0.224,0.446,0,0.672     L36.625,32.257z" data-original="#000000" class="active-path" data-old_color="#00c3ff" fill="#00c3ff"/>
			<path d="M49.168,51.968c1.568,0.449,3.359,0.673,3.359,0.673s-0.447-1.791-0.672-3.357L49.168,51.968z" data-original="#000000" class="active-path" data-old_color="#00c3ff" fill="#00c3ff"/>
			<path d="M27.216,28.896c-0.672,0.896-0.896,1.793-0.672,2.018l8.288,8.287c0,0,0.896-1.119,1.567-1.791l2.24-2.018l-8.287-8.287     c-0.225-0.225-1.12,0-2.017,0.672l-0.672-0.672c-0.448-0.447-1.12-0.447-1.345,0c-0.447,0.447-0.224,0.896,0,1.344L27.216,28.896     z" data-original="#000000" class="active-path" data-old_color="#00c3ff" fill="#00c3ff"/>
			<path d="M44.241,40.544l-2.017,2.465c-0.672,0.896-1.792,1.568-1.792,1.568l6.943,6.942l4.031-4.03L44.241,40.544z" data-original="#000000" class="active-path" data-old_color="#00c3ff" fill="#00c3ff"/>
			<path d="M29.233,45.025c-2.239,2.24-0.896,6.049-4.031,6.271c3.584,2.24,6.943,0.896,9.185-1.344     c2.24-2.24,1.792-4.031,0.224-5.377C33.265,43.232,31.473,42.785,29.233,45.025z" data-original="#000000" class="active-path" data-old_color="#00c3ff" fill="#00c3ff"/>
			<path d="M53.202,26.208c-0.449-0.446-1.345-0.224-2.24,0.449L37.746,37.856c-0.673,0.672-1.345,1.119-1.792,2.016l-1.345,1.567     c-0.672,0.896-0.447,2.017,0.225,2.688l0.225,0.226c0.672,0.672,2.016,0.896,2.688,0.225l1.792-1.344     c0.896-0.674,1.344-1.119,2.018-1.793l11.194-13.216C53.423,27.553,53.648,26.657,53.202,26.208z" data-original="#000000" class="active-path" data-old_color="#00c3ff" fill="#00c3ff"/>
		</g>
	</g>
</g></g> </svg>
