<?xml version="1.0"?>
<svg xmlns="http://www.w3.org/2000/svg" xmlns:xlink="http://www.w3.org/1999/xlink" version="1.1" id="Layer_1" x="0px" y="0px" viewBox="0 0 512 512" style="enable-background:new 0 0 512 512;" xml:space="preserve" width="512px" height="512px" class=""><g><path style="fill:#1CD759" d="M467.5,415l5-37.5c0,0-25-11-28-13.656s-2-11.844-2-11.844l14.5-19.5L430.5,304L391,314l-3-27h-39.5  L334,320.5l-29.5-14l-23,22l10,21.5l-6.5,22l-24,3v38.5l22,1l10.328,20.5L279,451l25,36.5l21.328-16.5L344,479l7.5,22.5H390l-2-20.5  l22.672-8L434,483.5l20.5-25.5l-7-16.5l3-26.5H467.5z M368.672,432.844c-20.703,0-37.5-16.797-37.5-37.5  c0-20.719,16.797-37.5,37.5-37.5s37.5,16.781,37.5,37.5C406.172,416.047,389.375,432.844,368.672,432.844z" data-original="#5D9CEC" class="" data-old_color="#1cd759"/><path style="fill:#FFDD09" d="M378.672,85.344l-72.656-6.016c0,0,0-63.328,0-65.328S38.672,8,38.672,8l-4,447.328L270.016,458  l20-17.328v-20l-34.016-12l3.344-30L282.016,372l11.312-16l-8.656-18.672l22-28l18.656,11.344L347.344,312l-1.328-18.672l29.328-12  L378.672,85.344z" data-original="#F5F7FA" class="" data-old_color="#ffdd09"/><polygon style="fill:#FFDD09" points="310,8 299,85.344 378.672,79 " data-original="#CCD1D9" class="" data-old_color="#ffdd09"/><g>
	<path style="fill:#FD9808" d="M141.344,363.844c0,8.922-7.984,16.156-17.844,16.156c-9.844,0-17.828-7.234-17.828-16.156   c0-8.938,7.984-16.172,17.828-16.172C133.359,347.672,141.344,354.906,141.344,363.844z" data-original="#48CFAD" class="active-path" data-old_color="#fd9808"/>
	<path style="fill:#FD9808" d="M222.688,363.844c0,8.922-7.984,16.156-17.844,16.156c-9.844,0-17.828-7.234-17.828-16.156   c0-8.938,7.984-16.172,17.828-16.172C214.703,347.672,222.688,354.906,222.688,363.844z" data-original="#48CFAD" class="active-path" data-old_color="#fd9808"/>
</g><polygon style="fill:#1CD759" points="206,96 156,151 156,233 256,233 261,152 " data-original="#AC92EB" class="" data-old_color="#1cd759"/><path d="M485.328,426.672v-64h-26.797c-1.141-3.203-2.438-6.344-3.891-9.391l18.953-18.938l-45.25-45.266L409.39,308.03  c-3.047-1.453-6.172-2.75-9.391-3.891v-26.797h-10.672v-192V76.5l-6.234-6.25l-64.016-64L312.844,0H304H48H26.672v21.344V448v21.344  H48h228.734l30.922,30.922l18.953-18.953c3.047,1.469,6.188,2.75,9.391,3.891V512h64v-26.797c3.219-1.141,6.344-2.422,9.391-3.891  l18.953,18.953l45.25-45.25l-18.953-18.953c1.453-3.047,2.75-6.188,3.891-9.391L485.328,426.672L485.328,426.672z M357.328,74.672  h-42.656V32L357.328,74.672z M48,21.344h245.328V96H368v181.344h-32v26.797c-3.203,1.141-6.344,2.438-9.391,3.891l-18.953-18.953  l-45.25,45.266l18.953,18.938c-1.453,3.047-2.75,6.188-3.891,9.391h-26.797v64h26.797c1.141,3.203,2.438,6.344,3.891,9.391  L269.406,448H48V21.344z M443.438,405.344l-5.016,14.219c-0.891,2.5-1.906,4.938-3.016,7.281l-6.531,13.625l10.688,10.688  l3.859,3.859l-15.078,15.078l-3.875-3.875l-10.672-10.656l-13.625,6.5c-2.328,1.125-4.781,2.141-7.281,3.031l-14.219,5.031v15.078  v5.469h-21.344v-5.469v-15.078l-14.219-5.031c-2.5-0.891-4.953-1.906-7.281-3.031l-13.625-6.5l-10.672,10.656l-3.875,3.875  l-15.078-15.078l3.859-3.859l10.688-10.688l-6.516-13.625c-1.125-2.344-2.141-4.781-3.031-7.281l-5.016-14.219h-15.094H272V384  h5.469h15.078l5.031-14.219c0.891-2.5,1.906-4.938,3.031-7.281l6.5-13.625l-10.672-10.672l-3.859-3.859l15.078-15.094l3.875,3.875  l10.672,10.656l13.609-6.5c2.344-1.125,4.797-2.141,7.297-3.031l14.219-5.031v-15.078v-5.469h21.344v5.469v15.094l14.219,5.016  c2.484,0.891,4.938,1.906,7.297,3.031l13.609,6.5l10.672-10.656l3.875-3.875l15.078,15.094l-3.859,3.859l-10.688,10.672  l6.531,13.625c1.109,2.328,2.125,4.781,3.016,7.281L443.438,384h15.094H464v21.344h-5.469H443.438z" data-original="#000000" class="" style="fill:#141111" data-old_color="#FFDD09"/><path d="M368,352c-23.562,0-42.672,19.109-42.672,42.672s19.109,42.672,42.672,42.672s42.672-19.109,42.672-42.672  S391.562,352,368,352z M368,416c-11.766,0-21.328-9.562-21.328-21.328s9.562-21.328,21.328-21.328s21.328,9.562,21.328,21.328  S379.766,416,368,416z" data-original="#000000" class="" style="fill:#141111" data-old_color="#FFDD09"/><path d="M218.672,332.5v-33.828h64c5.891,0,10.656-4.766,10.656-10.672c0-5.875-4.766-10.656-10.656-10.656h-64v-32h42.484  c5.891,0,10.672-4.781,10.672-10.672v-59.766l3.297,3.312l0,0c4.172,4.156,10.922,4.156,15.078,0  c4.172-4.156,4.172-10.922,0.016-15.094l0,0L215.61,88.468l0,0c-4.172-4.172-10.922-4.172-15.094,0  c-0.031,0.031-0.078,0.078-0.109,0.125l0,0l-74.609,74.531l0,0l0,0c-4.172,4.172-4.172,10.938,0,15.094  c4.156,4.156,10.906,4.156,15.078,0l0,0l3.125-3.125v59.562c0,0.016,0,0.016,0,0.016c0,5.891,4.781,10.672,10.672,10.672h42.656v32  H112V332.5c-12.422,4.406-21.328,16.25-21.328,30.172c0,17.672,14.328,32,32,32s32-14.328,32-32  c0-13.922-8.906-25.766-21.344-30.172v-33.828h64V332.5C184.906,336.906,176,348.75,176,362.672c0,17.672,14.328,32,32,32  s32-14.328,32-32C240,348.75,231.094,336.906,218.672,332.5z M208.062,111.094l42.422,42.469V224H218.75v-32  c0-5.875-4.766-10.656-10.656-10.656s-10.672,4.781-10.672,10.656v32h-32.094v-70.219L208.062,111.094z M122.672,373.344  c-5.891,0-10.672-4.781-10.672-10.672S116.781,352,122.672,352c5.875,0,10.656,4.781,10.656,10.672S128.547,373.344,122.672,373.344  z M208,373.344c-5.875,0-10.672-4.781-10.672-10.672S202.125,352,208,352s10.672,4.781,10.672,10.672S213.875,373.344,208,373.344z" data-original="#000000" class="" style="fill:#141111" data-old_color="#FFDD09"/></g> </svg>
