<?xml version="1.0"?>
<svg xmlns="http://www.w3.org/2000/svg" xmlns:xlink="http://www.w3.org/1999/xlink" version="1.1" id="Capa_1" x="0px" y="0px" viewBox="0 0 496 496" style="enable-background:new 0 0 496 496;" xml:space="preserve" width="512px" height="512px" class=""><g><path style="fill:#333333" d="M8,248c0,66.272,53.728,120,120,120V128C61.728,128,8,181.728,8,248z" data-original="#FFA64D" class="" data-old_color="#FFA64D"/><g>
	<path style="fill:#FFDD09" d="M456,0H248c-22.056,0-40,17.944-40,40v416c0,22.056,17.944,40,40,40h208c22.056,0,40-17.944,40-40   V40C496,17.944,478.056,0,456,0z M248,16h208c13.232,0,24,10.768,24,24v8H224v-8C224,26.768,234.768,16,248,16z M480,64v352H224V64   H480z M456,480H248c-13.232,0-24-10.768-24-24v-24h256v24C480,469.232,469.232,480,456,480z" data-original="#333333" class="active-path" data-old_color="#ffdd09"/>
	<rect x="296" y="448" style="fill:#FFDD09" width="112" height="16" data-original="#333333" class="active-path" data-old_color="#ffdd09"/>
	<path style="fill:#FFDD09" d="M352,352c61.76,0,112-50.24,112-112s-50.24-112-112-112s-112,50.24-112,112S290.24,352,352,352z    M256.408,248h31.976c0.984,17.704,5.064,32.936,10.752,45.84c-7.04,4.064-12.584,8.4-16.712,12.112   C267.824,290.56,258.264,270.376,256.408,248z M360,199.672c11.528-0.808,21.6-3.312,30.28-6.64c4.856,11.04,8.376,24,9.336,38.96   H360V199.672z M360,183.672V151.92c6.776,5.896,15.328,14.808,22.816,26.848C376.16,181.136,368.592,182.968,360,183.672z    M379.136,147.968c11.12,3.288,21.368,8.568,30.416,15.376c-3.088,2.664-7.072,5.648-11.96,8.528   C391.76,162.16,385.264,154.288,379.136,147.968z M344,151.8v31.872c-8.656-0.712-16.272-2.56-22.96-4.96   C328.568,166.56,337.168,157.664,344,151.8z M306.408,171.88c-4.888-2.888-8.872-5.872-11.96-8.528   c9.048-6.816,19.288-12.096,30.416-15.376C318.736,154.288,312.24,162.16,306.408,171.88z M344,199.672V232h-39.624   c0.944-15.016,4.424-27.976,9.232-39.008C322.312,196.344,332.424,198.864,344,199.672z M344,248v32.328   c-11.528,0.808-21.6,3.312-30.28,6.64c-4.856-11.04-8.376-24-9.336-38.96H344V248z M324.856,332.032   c-11.12-3.288-21.368-8.568-30.416-15.376c3.088-2.664,7.072-5.648,11.96-8.536C312.24,317.84,318.736,325.712,324.856,332.032z    M321.184,301.24c6.656-2.376,14.216-4.2,22.816-4.912v31.752C337.224,322.192,328.672,313.28,321.184,301.24z M360,328.04v-31.712   c8.6,0.704,16.168,2.536,22.824,4.912C375.344,313.232,366.784,322.128,360,328.04z M397.472,308.048   c4.944,2.912,8.96,5.92,12.08,8.608c-9.072,6.824-19.336,12.112-30.488,15.4C385.176,325.728,391.648,317.768,397.472,308.048z    M421.576,305.952c-4.136-3.712-9.688-8.056-16.744-12.128c1.592-3.608,3.112-7.32,4.432-11.296l-15.184-5.064   c-1.112,3.336-2.384,6.472-3.728,9.52c-8.696-3.336-18.792-5.848-30.352-6.664V248h39.64c-0.312,4.936-0.8,9.816-1.688,14.512   l15.72,2.952c1.064-5.664,1.632-11.536,1.968-17.472h31.96C445.736,270.376,436.176,290.56,421.576,305.952z M447.592,232h-31.976   c-0.984-17.696-5.064-32.936-10.752-45.84c7.04-4.064,12.584-8.4,16.712-12.112C436.176,189.448,445.736,209.624,447.592,232z    M282.424,174.048c4.128,3.712,9.672,8.04,16.712,12.112c-5.696,12.904-9.768,28.144-10.752,45.84h-31.976   C258.264,209.624,267.824,189.448,282.424,174.048z" data-original="#333333" class="active-path" data-old_color="#ffdd09"/>
	<path style="fill:#FFDD09" d="M128,216c-17.648,0-32,14.352-32,32s14.352,32,32,32s32-14.352,32-32S145.648,216,128,216z M128,264   c-8.824,0-16-7.176-16-16s7.176-16,16-16s16,7.176,16,16S136.824,264,128,264z" data-original="#333333" class="active-path" data-old_color="#ffdd09"/>
	<path style="fill:#FFDD09" d="M80,248c0-26.472,21.528-48,48-48v-16c-35.288,0-64,28.712-64,64s28.712,64,64,64v-16   C101.528,296,80,274.472,80,248z" data-original="#333333" class="active-path" data-old_color="#ffdd09"/>
	<path style="fill:#FFDD09" d="M93.128,337.472l5.816-14.904C67.992,310.496,48,281.216,48,248c0-44.112,35.888-80,80-80v-16   c-52.936,0-96,43.064-96,96C32,287.856,55.992,322.976,93.128,337.472z" data-original="#333333" class="active-path" data-old_color="#ffdd09"/>
	<path style="fill:#FFDD09" d="M110.552,342.416C116.28,343.472,122.152,344,128,344v-16c-4.88,0-9.784-0.448-14.552-1.32   L110.552,342.416z" data-original="#333333" class="active-path" data-old_color="#ffdd09"/>
	<path style="fill:#FFDD09" d="M16,248c0-61.76,50.24-112,112-112v-16C57.424,120,0,177.424,0,248s57.424,128,128,128v-16   C66.24,360,16,309.76,16,248z" data-original="#333333" class="active-path" data-old_color="#ffdd09"/>
</g></g> </svg>
